<svg xmlns="http://www.w3.org/2000/svg" width="54" height="44" viewBox="0 0 54 44"><g><g><g><path fill="#e7e8f3" d="M0 2a2 2 0 0 1 2-2h12a2 2 0 0 1 2 2v8a2 2 0 0 1-2 2H2a2 2 0 0 1-2-2z"/></g><g><path fill="#e7e8f3" d="M19 2a2 2 0 0 1 2-2h12a2 2 0 0 1 2 2v8a2 2 0 0 1-2 2H21a2 2 0 0 1-2-2z"/></g><g><path fill="#e7e8f3" d="M38 2a2 2 0 0 1 2-2h12a2 2 0 0 1 2 2v8a2 2 0 0 1-2 2H40a2 2 0 0 1-2-2z"/></g><g><path fill="#e7e8f3" d="M0 18a2 2 0 0 1 2-2h12a2 2 0 0 1 2 2v8a2 2 0 0 1-2 2H2a2 2 0 0 1-2-2z"/></g><g><path fill="#e7e8f3" d="M19 18a2 2 0 0 1 2-2h12a2 2 0 0 1 2 2v8a2 2 0 0 1-2 2H21a2 2 0 0 1-2-2z"/></g><g><path fill="#e7e8f3" d="M38 18a2 2 0 0 1 2-2h12a2 2 0 0 1 2 2v8a2 2 0 0 1-2 2H40a2 2 0 0 1-2-2z"/></g><g><path fill="#e7e8f3" d="M0 34a2 2 0 0 1 2-2h12a2 2 0 0 1 2 2v8a2 2 0 0 1-2 2H2a2 2 0 0 1-2-2z"/></g><g><path fill="#e7e8f3" d="M19 34a2 2 0 0 1 2-2h12a2 2 0 0 1 2 2v8a2 2 0 0 1-2 2H21a2 2 0 0 1-2-2z"/></g><g><path fill="#e7e8f3" d="M38 34a2 2 0 0 1 2-2h12a2 2 0 0 1 2 2v8a2 2 0 0 1-2 2H40a2 2 0 0 1-2-2z"/></g></g></g></svg>