<svg xmlns="http://www.w3.org/2000/svg" width="51" height="59" viewBox="0 0 51 59"><g><g><g><path fill="#fff" d="M0 39.82h50.108v11.632a6.71 6.71 0 0 1-6.711 6.711H6.71A6.71 6.71 0 0 1 0 51.453z"/></g><g><path fill="#2fa153" d="M50.108 18.343H0V6.711A6.71 6.71 0 0 1 6.71 0h36.687a6.71 6.71 0 0 1 6.71 6.71z"/></g><g><g><path fill="#2fa153" d="M0 6.71h50l.108 31.37-4.678 1.914h-3.333l-4.624-2.35-4.462 2.329-3.548.02-4.597-2.183-4.49 2.288-3.602.062-4.489-2.246-4.624 2.35H4.247L0 37.955z"/></g><g><path fill="#fff" d="M7.55 26.228c2.089-3.696 3.562-7.257 5.41-11.007 1.151-2.357 3.053-5.41 5.436-6.668 2.759-1.473 5.41.535 6.91 2.865.803 1.259 1.446 2.786 1.955 4.446.777 2.464 3.803 8.543 5.196 9.507.214 1.768-1.098 3.723-6.026 4.098-6.535.482-12.936-2.893-18.881-3.24z"/></g><g><path fill="#fff" d="M27.16 14.423c1.58-2.464 5.463-6.401 8.972-1.473 2.115 2.972 4.097 7.364 6.642 9.909 2.838 2.838-5.33 2.785-6.428 2.785-1.473 0-2.732-.187-3.83-.536-2.169-2.464-4.285-7.257-5.356-10.685z"/></g><g><path fill="#fff" d="M.03 40.333V37.36l2.25-2.089 3.106-.134-.134.991-.857.482-.134 3.723h3.402l.08-3.696-.803-.67.08-.669 3.374.08 1.902 1.956 2.357-2.01 3.053-.133v.536l-.884.937-.08 3.562 3.588-.08.08-3.643-1.017-.616v-.616l3.32.08 2.09 1.822 2.169-1.955 3.24-.08v.401l-.937.938.134 3.508 3.508-.027v-3.535l-.883-.616v-.536h3.24l2.089 1.688 1.821-1.822h3.375v.536l-.75.75.134 3.562h3.32v-3.83l-.669-.67v-.535l3.24.08 1.5 1.34.616 1.151v2.49z"/></g><g><path fill="#009ede" d="M44.696 46.844c-4.017.589-4.767-3.964-12.185-3.294-.723.053-2.384-.51-3.187-.723-1.902-.456-3.374-.054-3.776.026-1.955.375-4.125 1.5-6.347 2.33-1.554.59-3.027.054-3.348-.455-.375-.643-.295-1.66-1.044-2.25-.616-.482-2.223-.67-2.946.188-.402.482-1.527 1.178-2.357 1.553.428.643.99 1.018 1.714 1.045.67.026 1.125-.188 1.42.401.24.456-.108.75-.349.91-.803.537-2.062.242-2.892.403-.91.187-1.125 1.205-.51 1.473.75.348 1.635-.161 2.277-.482.482-.241 1.179-.161 1.179.267.026.563-.643.777-1.205.777-.965 0-2.063.803-1.473 1.34.535.481 1.124-.215 1.981-.108 1.58.241 1.795-.536 2.679-.482 1.258.08 2.088.053 3.133-.429a77.052 77.052 0 0 1 3.401-1.5c.964-.401 2.303-.696 3.616-.75 1.446-.08 3.883 0 4.927.75.964.697 2.143 1.393 3.75 2.465.401.267.99.32 1.098-.054.134-.536-1.741-1.848-1.259-1.875.696-.026 1.259 1.259 2.223 1.34 1.098.08 2.008-.322 1.392-.67-1.633-.857-2.999-1.58-4.15-2.652-1.34-1.205-.617-2.115.535-1.312 3.508 2.437 5.115 3.883 11.703 1.768z"/></g><g><path fill="#f7b935" d="M12.694 42.15c.776 1.125 1.205 2.464-.348 3.214-.295-.188-.67-.08-1.152-.08-.723-.027-1.286-.402-1.714-1.045.83-.348 1.955-1.045 2.357-1.553.214-.295.535-.456.857-.536z"/></g><g><path fill="#ef3e30" d="M10.26 44.746c.24 0 .455-.16.455-.321 0-.188-.215-.322-.456-.322-.214 0-.562-.053-.589.054-.027.027-.214 0-.187.08.026.134.294.402.348.456.08.08.294.053.428.053z"/></g><g><path fill="#f7b935" d="M11.84 47.857c.08-.777.027-.777.643-1.259.535-.428 1.151-.187 1.366.643.08.348.482.884-.456 1.527-.294.187-.696.589-1.258-.08a.608.608 0 0 0 .16-.43c.027-.24-.187-.374-.455-.4z"/></g></g></g></g></svg>